<svg width="800" height="800" viewBox="0 0 800 800" fill="none" xmlns="http://www.w3.org/2000/svg">
<path d="M400 0C293.913 0 192.172 42.1427 117.157 117.157C42.1427 192.172 0 293.913 0 400C0.0141537 413.659 0.755945 427.308 2.22222 440.889C12.6218 539.137 59.013 630.06 132.458 696.14C205.902 762.221 301.203 798.784 400 798.784C498.797 798.784 594.098 762.221 667.542 696.14C740.987 630.06 787.378 539.137 797.778 440.889C799.244 427.308 799.986 413.659 800 400C800 293.913 757.857 192.172 682.843 117.157C607.828 42.1427 506.087 0 400 0ZM640.889 596.444C640.444 596.444 638.222 600 637.778 600C608.682 634.782 572.31 662.758 531.226 681.954C490.142 701.15 445.347 711.099 400 711.099C354.653 711.099 309.858 701.15 268.774 681.954C227.69 662.758 191.318 634.782 162.222 600C161.778 600 159.556 596.444 159.111 596.444C156.67 592.903 155.284 588.742 155.111 584.444C155.194 579.782 156.68 575.252 159.376 571.447C162.071 567.641 165.851 564.736 170.222 563.111C203.111 552 234.667 541.333 243.556 539.111C243.349 538.109 243.361 537.074 243.591 536.077C243.821 535.079 244.264 534.144 244.889 533.333C246.054 529.031 248.512 525.19 251.929 522.329C255.347 519.468 259.56 517.724 264 517.333L320.444 512.889C319.969 500.743 317.099 488.811 312 477.778V477.333C307.237 464.779 300.484 453.074 292 442.667C268.758 412.346 256.391 375.089 256.889 336.889C254.431 297.605 267.489 258.926 293.255 229.171C319.02 199.416 355.435 180.962 394.667 177.778H405.333C444.565 180.962 480.98 199.416 506.745 229.171C532.511 258.926 545.569 297.605 543.111 336.889C543.609 375.089 531.242 412.346 508 442.667C499.516 453.074 492.762 464.779 488 477.333V477.778C482.901 488.811 480.031 500.743 479.556 512.889L536 517.333C540.44 517.724 544.653 519.468 548.071 522.329C551.488 525.19 553.946 529.031 555.111 533.333C555.736 534.144 556.179 535.079 556.409 536.077C556.639 537.074 556.651 538.109 556.444 539.111C565.333 541.333 596.889 552 629.778 563.111C633.036 564.157 636.003 565.956 638.436 568.362C640.87 570.768 642.702 573.714 643.784 576.961C644.866 580.207 645.168 583.664 644.665 587.049C644.162 590.434 642.868 593.653 640.889 596.444Z" fill="#494C4E"/>
<g clip-path="url(#clip0_8_2)">
<path d="M720.785 272.816C714.507 261.422 704.679 251.929 692.504 245.042C680.335 238.187 665.645 234 649.701 234C630.049 233.954 613.721 238.843 601.398 245.614C589.025 252.361 583.69 260.217 583.69 260.217C581.611 261.94 580.438 264.447 580.487 267.069C580.544 269.695 581.81 272.159 583.953 273.797L601.078 286.894C604.568 289.562 609.563 289.462 612.932 286.658C612.932 286.658 615.036 283.027 621.628 279.431C628.257 275.859 636.852 272.982 649.701 272.943C660.909 272.92 670.681 276.913 677.35 282.371C680.663 285.074 683.138 288.102 684.654 290.872C686.183 293.664 686.741 296.105 686.734 297.959C686.701 304.224 685.427 308.321 683.587 311.812C682.183 314.42 680.352 316.733 677.993 318.977C674.474 322.337 669.702 325.442 664.347 328.297C658.988 331.186 653.212 333.727 647.376 336.798C640.714 340.32 633.665 345.379 628.456 352.973C625.859 356.727 623.828 361.021 622.539 365.552C621.232 370.086 620.642 374.841 620.642 379.691C620.642 384.867 620.642 389.115 620.642 389.115C620.642 393.993 624.783 397.948 629.892 397.948H652.177C657.285 397.948 661.427 393.993 661.427 389.115C661.427 389.115 661.427 384.867 661.427 379.691C661.427 377.822 661.65 376.617 661.864 375.852C662.233 374.709 662.439 374.423 663.041 373.728C663.656 373.067 664.898 372.056 667.186 370.847C670.531 369.051 675.907 366.626 681.993 363.486C691.106 358.727 702.184 352.27 711.527 341.614C716.174 336.296 720.283 329.892 723.118 322.515C725.978 315.138 727.523 306.846 727.515 297.959C727.506 288.956 724.95 280.405 720.785 272.816Z" fill="#7D8185"/>
<path d="M641.042 418.962C627.149 418.962 615.885 429.722 615.885 442.985C615.885 456.244 627.15 467 641.042 467C654.927 467 666.187 456.244 666.187 442.985C666.187 429.722 654.927 418.962 641.042 418.962Z" fill="#7D8185"/>
</g>
<defs>
<clipPath id="clip0_8_2">
<rect width="244" height="233" fill="white" transform="translate(532 234)"/>
</clipPath>
</defs>
</svg>
